# xmcd CD database file
#
# Track frame offsets:
#	150
#	17042
#	30200
#	43100
#	58828
#	69130
#	78951
#	88668
#	101659
#	115371
#	134025
#	151422
#
# Disc length: 2178 seconds
#
# Revision: 0
# Processed by: cddbd v1.5.2PL0 Copyright (c) Steve Scherf et al.
# Submitted via: CDex 1.51
#
DISCID=9708800c
DTITLE=Heidi Hauge - Some Broken Hearts
DYEAR=2007
DGENRE=Country
TTITLE0=Saturday night
TTITLE1=The other side of the hill
TTITLE2=Some broken hearts never mend
TTITLE3=Down to my last teardrop
TTITLE4=Whats a girl gotta do
TTITLE5=Lets pretend
TTITLE6=Louisiana saturday night
TTITLE7=I´ve already loved you in my mind
TTITLE8=Why have you left the one you left for me
TTITLE9=Crazy
TTITLE10=I´ll fly
TTITLE11=Ones on the way
EXTD=YEAR: 2007
EXTT0=
EXTT1=
EXTT2=
EXTT3=
EXTT4=
EXTT5=
EXTT6=
EXTT7=
EXTT8=
EXTT9=
EXTT10=
EXTT11=
PLAYORDER=
